<svg xmlns="http://www.w3.org/2000/svg" xmlns:xlink="http://www.w3.org/1999/xlink" width="500" zoomAndPan="magnify" viewBox="0 0 375 374.999991" height="500" preserveAspectRatio="xMidYMid meet" version="1.0"><defs><clipPath id="8c43c5d48d"><path d="M 11.777344 12 L 363 12 L 363 363 L 11.777344 363 Z M 11.777344 12 " clip-rule="nonzero"/></clipPath></defs><path fill="#ffffff" d="M 186.910156 222.523438 C 186.113281 222.523438 185.34375 222.363281 184.609375 222.050781 L 164.546875 213.449219 L 186.910156 242.199219 L 209.277344 213.449219 L 189.210938 222.050781 C 188.476562 222.363281 187.710938 222.523438 186.910156 222.523438 Z M 186.910156 222.523438 " fill-opacity="1" fill-rule="nonzero"/><path fill="#ffffff" d="M 163.4375 200.273438 L 186.910156 210.332031 L 210.386719 200.273438 L 186.910156 193.566406 Z M 163.4375 200.273438 " fill-opacity="1" fill-rule="nonzero"/><path fill="#ffffff" d="M 181.074219 146.433594 L 157.746094 189.753906 L 181.074219 183.085938 Z M 181.074219 146.433594 " fill-opacity="1" fill-rule="nonzero"/><path fill="#ffffff" d="M 192.75 183.085938 L 216.078125 189.753906 L 192.75 146.433594 Z M 192.75 183.085938 " fill-opacity="1" fill-rule="nonzero"/><g clip-path="url(#8c43c5d48d)"><path fill="#ffffff" d="M 338.691406 164.144531 C 337.410156 164.144531 336.136719 164.253906 334.871094 164.464844 C 333.609375 164.679688 332.367188 164.992188 331.15625 165.410156 C 329.945312 165.828125 328.773438 166.34375 327.644531 166.953125 C 326.515625 167.5625 325.445312 168.261719 324.433594 169.046875 C 323.421875 169.835938 322.480469 170.699219 321.609375 171.644531 C 320.742188 172.585938 319.957031 173.59375 319.25 174.664062 C 318.546875 175.738281 317.9375 176.859375 317.417969 178.035156 C 316.902344 179.207031 316.484375 180.414062 316.164062 181.65625 L 268.34375 181.65625 C 268.035156 177.289062 267.378906 172.972656 266.371094 168.710938 C 265.367188 164.449219 264.023438 160.296875 262.347656 156.25 C 260.667969 152.207031 258.679688 148.320312 256.375 144.597656 C 254.066406 140.875 251.476562 137.359375 248.605469 134.054688 L 282.464844 100.195312 C 283.273438 100.671875 284.105469 101.101562 284.964844 101.476562 C 285.824219 101.851562 286.703125 102.175781 287.601562 102.445312 C 288.5 102.714844 289.410156 102.929688 290.335938 103.089844 C 291.261719 103.25 292.191406 103.355469 293.128906 103.402344 C 294.066406 103.449219 295 103.441406 295.9375 103.378906 C 296.871094 103.3125 297.800781 103.191406 298.722656 103.015625 C 299.644531 102.839844 300.550781 102.605469 301.445312 102.320312 C 302.335938 102.035156 303.210938 101.695312 304.0625 101.304688 C 304.914062 100.914062 305.742188 100.472656 306.542969 99.980469 C 307.339844 99.492188 308.109375 98.953125 308.84375 98.371094 C 309.578125 97.789062 310.273438 97.164062 310.933594 96.496094 C 311.59375 95.828125 312.210938 95.125 312.785156 94.382812 C 313.359375 93.640625 313.886719 92.867188 314.367188 92.0625 C 314.847656 91.257812 315.28125 90.425781 315.660156 89.570312 C 316.042969 88.710938 316.371094 87.835938 316.644531 86.9375 C 316.921875 86.039062 317.140625 85.128906 317.308594 84.207031 C 317.472656 83.285156 317.582031 82.355469 317.636719 81.417969 C 317.691406 80.480469 317.6875 79.542969 317.628906 78.609375 C 317.570312 77.671875 317.453125 76.742188 317.28125 75.820312 C 317.113281 74.898438 316.886719 73.988281 316.605469 73.09375 C 316.324219 72.199219 315.992188 71.324219 315.605469 70.46875 C 315.21875 69.613281 314.78125 68.785156 314.296875 67.984375 C 313.808594 67.179688 313.277344 66.410156 312.699219 65.671875 C 312.121094 64.933594 311.5 64.234375 310.835938 63.570312 C 310.171875 62.90625 309.472656 62.285156 308.734375 61.707031 C 307.996094 61.128906 307.226562 60.597656 306.421875 60.109375 C 305.621094 59.625 304.792969 59.1875 303.9375 58.800781 C 303.082031 58.414062 302.207031 58.082031 301.3125 57.800781 C 300.417969 57.519531 299.507812 57.292969 298.585938 57.125 C 297.664062 56.953125 296.734375 56.835938 295.796875 56.777344 C 294.863281 56.71875 293.925781 56.714844 292.988281 56.769531 C 292.050781 56.824219 291.121094 56.933594 290.199219 57.097656 C 289.277344 57.265625 288.367188 57.484375 287.46875 57.761719 C 286.570312 58.035156 285.695312 58.363281 284.839844 58.746094 C 283.980469 59.125 283.148438 59.558594 282.34375 60.039062 C 281.539062 60.519531 280.765625 61.046875 280.023438 61.621094 C 279.28125 62.195312 278.578125 62.8125 277.910156 63.472656 C 277.242188 64.132812 276.617188 64.828125 276.035156 65.5625 C 275.453125 66.296875 274.914062 67.066406 274.425781 67.863281 C 273.933594 68.664062 273.492188 69.492188 273.101562 70.34375 C 272.710938 71.195312 272.371094 72.070312 272.085938 72.960938 C 271.800781 73.855469 271.566406 74.761719 271.390625 75.683594 C 271.214844 76.605469 271.09375 77.535156 271.027344 78.46875 C 270.964844 79.40625 270.957031 80.34375 271.003906 81.277344 C 271.050781 82.214844 271.15625 83.144531 271.316406 84.070312 C 271.476562 84.996094 271.691406 85.90625 271.960938 86.804688 C 272.230469 87.703125 272.554688 88.582031 272.929688 89.441406 C 273.304688 90.300781 273.734375 91.132812 274.210938 91.941406 L 240.378906 125.773438 C 237.070312 122.898438 233.554688 120.3125 229.828125 118.007812 C 226.101562 115.707031 222.214844 113.714844 218.167969 112.042969 C 214.121094 110.367188 209.964844 109.027344 205.699219 108.023438 C 201.4375 107.023438 197.117188 106.367188 192.75 106.0625 L 192.75 58.242188 C 193.65625 58.007812 194.546875 57.71875 195.421875 57.375 C 196.296875 57.035156 197.144531 56.640625 197.972656 56.199219 C 198.796875 55.753906 199.59375 55.261719 200.359375 54.71875 C 201.128906 54.179688 201.859375 53.59375 202.554688 52.96875 C 203.253906 52.339844 203.910156 51.671875 204.523438 50.964844 C 205.140625 50.253906 205.710938 49.511719 206.238281 48.738281 C 206.765625 47.960938 207.242188 47.15625 207.671875 46.320312 C 208.101562 45.488281 208.480469 44.632812 208.804688 43.75 C 209.132812 42.871094 209.402344 41.976562 209.621094 41.0625 C 209.839844 40.152344 210.003906 39.230469 210.109375 38.296875 C 210.21875 37.367188 210.269531 36.429688 210.261719 35.492188 C 210.257812 34.554688 210.195312 33.621094 210.078125 32.6875 C 209.957031 31.757812 209.785156 30.839844 209.554688 29.929688 C 209.328125 29.019531 209.042969 28.125 208.707031 27.25 C 208.371094 26.375 207.980469 25.523438 207.542969 24.695312 C 207.101562 23.867188 206.617188 23.066406 206.078125 22.296875 C 205.542969 21.527344 204.964844 20.792969 204.339844 20.089844 C 203.714844 19.390625 203.050781 18.730469 202.347656 18.109375 C 201.644531 17.492188 200.90625 16.914062 200.132812 16.382812 C 199.359375 15.851562 198.554688 15.371094 197.726562 14.933594 C 196.894531 14.5 196.039062 14.117188 195.160156 13.785156 C 194.285156 13.457031 193.390625 13.175781 192.480469 12.953125 C 191.566406 12.730469 190.648438 12.5625 189.714844 12.449219 C 188.785156 12.335938 187.847656 12.28125 186.910156 12.28125 C 185.972656 12.28125 185.039062 12.335938 184.105469 12.449219 C 183.175781 12.5625 182.253906 12.730469 181.34375 12.953125 C 180.433594 13.175781 179.539062 13.457031 178.660156 13.785156 C 177.785156 14.117188 176.929688 14.5 176.097656 14.933594 C 175.265625 15.371094 174.464844 15.851562 173.691406 16.382812 C 172.917969 16.914062 172.179688 17.492188 171.476562 18.109375 C 170.769531 18.730469 170.105469 19.390625 169.484375 20.089844 C 168.859375 20.792969 168.277344 21.527344 167.742188 22.296875 C 167.207031 23.066406 166.71875 23.867188 166.28125 24.695312 C 165.839844 25.523438 165.453125 26.375 165.117188 27.25 C 164.78125 28.125 164.496094 29.019531 164.265625 29.929688 C 164.039062 30.839844 163.863281 31.757812 163.746094 32.6875 C 163.628906 33.621094 163.566406 34.554688 163.5625 35.492188 C 163.554688 36.429688 163.605469 37.367188 163.714844 38.296875 C 163.820312 39.230469 163.984375 40.152344 164.199219 41.0625 C 164.417969 41.976562 164.691406 42.871094 165.015625 43.75 C 165.34375 44.632812 165.722656 45.488281 166.152344 46.320312 C 166.582031 47.15625 167.058594 47.960938 167.585938 48.738281 C 168.113281 49.511719 168.683594 50.253906 169.296875 50.964844 C 169.914062 51.671875 170.570312 52.339844 171.265625 52.96875 C 171.964844 53.59375 172.695312 54.179688 173.460938 54.71875 C 174.230469 55.261719 175.023438 55.753906 175.851562 56.199219 C 176.675781 56.640625 177.527344 57.035156 178.402344 57.375 C 179.273438 57.71875 180.164062 58.007812 181.074219 58.242188 L 181.074219 106.0625 C 176.707031 106.371094 172.390625 107.027344 168.128906 108.035156 C 163.867188 109.039062 159.710938 110.382812 155.667969 112.058594 C 151.621094 113.738281 147.738281 115.726562 144.015625 118.035156 C 140.289062 120.339844 136.777344 122.929688 133.472656 125.800781 L 99.613281 91.941406 C 100.089844 91.132812 100.515625 90.300781 100.890625 89.441406 C 101.265625 88.582031 101.589844 87.703125 101.859375 86.804688 C 102.128906 85.90625 102.34375 84.992188 102.503906 84.070312 C 102.664062 83.144531 102.765625 82.214844 102.8125 81.277344 C 102.863281 80.339844 102.851562 79.40625 102.789062 78.46875 C 102.722656 77.53125 102.601562 76.605469 102.425781 75.683594 C 102.246094 74.761719 102.015625 73.855469 101.730469 72.960938 C 101.441406 72.070312 101.105469 71.195312 100.710938 70.34375 C 100.320312 69.492188 99.878906 68.664062 99.386719 67.867188 C 98.898438 67.066406 98.359375 66.300781 97.777344 65.566406 C 97.191406 64.832031 96.566406 64.132812 95.898438 63.476562 C 95.230469 62.816406 94.527344 62.199219 93.785156 61.625 C 93.042969 61.050781 92.269531 60.523438 91.464844 60.042969 C 90.660156 59.5625 89.828125 59.128906 88.972656 58.75 C 88.113281 58.371094 87.238281 58.042969 86.339844 57.765625 C 85.441406 57.492188 84.53125 57.269531 83.609375 57.105469 C 82.6875 56.941406 81.757812 56.832031 80.820312 56.777344 C 79.882812 56.726562 78.945312 56.726562 78.011719 56.789062 C 77.074219 56.847656 76.144531 56.960938 75.222656 57.132812 C 74.300781 57.304688 73.390625 57.53125 72.496094 57.8125 C 71.601562 58.09375 70.726562 58.425781 69.871094 58.8125 C 69.019531 59.199219 68.191406 59.636719 67.386719 60.125 C 66.585938 60.609375 65.816406 61.140625 65.078125 61.722656 C 64.339844 62.300781 63.640625 62.921875 62.976562 63.585938 C 62.3125 64.25 61.691406 64.949219 61.113281 65.6875 C 60.535156 66.425781 60.003906 67.195312 59.515625 68 C 59.03125 68.800781 58.59375 69.628906 58.210938 70.484375 C 57.824219 71.339844 57.492188 72.214844 57.210938 73.109375 C 56.929688 74.007812 56.703125 74.914062 56.53125 75.835938 C 56.363281 76.757812 56.246094 77.6875 56.1875 78.625 C 56.128906 79.5625 56.125 80.496094 56.179688 81.433594 C 56.234375 82.371094 56.34375 83.300781 56.511719 84.222656 C 56.675781 85.148438 56.898438 86.058594 57.171875 86.953125 C 57.449219 87.851562 57.777344 88.726562 58.160156 89.585938 C 58.539062 90.441406 58.972656 91.273438 59.453125 92.078125 C 59.933594 92.882812 60.460938 93.65625 61.039062 94.398438 C 61.613281 95.136719 62.230469 95.84375 62.890625 96.507812 C 63.546875 97.175781 64.246094 97.800781 64.980469 98.382812 C 65.714844 98.96875 66.480469 99.503906 67.28125 99.996094 C 68.082031 100.484375 68.90625 100.925781 69.761719 101.316406 C 70.613281 101.707031 71.484375 102.046875 72.378906 102.332031 C 73.273438 102.617188 74.179688 102.847656 75.101562 103.027344 C 76.023438 103.203125 76.953125 103.324219 77.886719 103.386719 C 78.824219 103.453125 79.757812 103.460938 80.695312 103.410156 C 81.632812 103.363281 82.5625 103.257812 83.488281 103.097656 C 84.414062 102.9375 85.324219 102.722656 86.222656 102.453125 C 87.121094 102.183594 88 101.859375 88.859375 101.480469 C 89.71875 101.105469 90.550781 100.679688 91.359375 100.203125 L 125.1875 134.0625 C 122.316406 137.367188 119.730469 140.882812 117.429688 144.605469 C 115.125 148.328125 113.136719 152.210938 111.464844 156.257812 C 109.789062 160.300781 108.449219 164.453125 107.445312 168.714844 C 106.441406 172.976562 105.785156 177.289062 105.480469 181.65625 L 57.65625 181.65625 C 57.421875 180.75 57.132812 179.859375 56.792969 178.984375 C 56.449219 178.109375 56.058594 177.261719 55.613281 176.433594 C 55.167969 175.609375 54.675781 174.8125 54.136719 174.046875 C 53.597656 173.277344 53.011719 172.546875 52.382812 171.851562 C 51.753906 171.152344 51.085938 170.5 50.378906 169.882812 C 49.671875 169.265625 48.929688 168.695312 48.152344 168.167969 C 47.378906 167.640625 46.570312 167.164062 45.738281 166.734375 C 44.902344 166.304688 44.046875 165.925781 43.167969 165.601562 C 42.289062 165.273438 41.390625 165.003906 40.480469 164.785156 C 39.566406 164.566406 38.644531 164.402344 37.714844 164.296875 C 36.78125 164.191406 35.847656 164.140625 34.910156 164.144531 C 33.96875 164.148438 33.035156 164.210938 32.105469 164.332031 C 31.175781 164.449219 30.253906 164.621094 29.34375 164.851562 C 28.433594 165.082031 27.542969 165.363281 26.667969 165.699219 C 25.792969 166.035156 24.941406 166.425781 24.109375 166.863281 C 23.28125 167.304688 22.484375 167.789062 21.710938 168.328125 C 20.941406 168.863281 20.207031 169.441406 19.507812 170.066406 C 18.808594 170.691406 18.148438 171.355469 17.527344 172.058594 C 16.90625 172.761719 16.332031 173.5 15.800781 174.273438 C 15.269531 175.046875 14.785156 175.851562 14.351562 176.679688 C 13.917969 177.511719 13.535156 178.367188 13.203125 179.246094 C 12.871094 180.121094 12.59375 181.015625 12.371094 181.925781 C 12.148438 182.839844 11.976562 183.761719 11.867188 184.691406 C 11.753906 185.621094 11.695312 186.558594 11.695312 187.496094 C 11.695312 188.433594 11.753906 189.367188 11.867188 190.300781 C 11.976562 191.230469 12.148438 192.152344 12.371094 193.0625 C 12.59375 193.972656 12.871094 194.867188 13.203125 195.746094 C 13.535156 196.621094 13.917969 197.476562 14.351562 198.308594 C 14.785156 199.140625 15.269531 199.941406 15.800781 200.714844 C 16.332031 201.488281 16.90625 202.226562 17.527344 202.929688 C 18.148438 203.636719 18.808594 204.300781 19.507812 204.925781 C 20.207031 205.546875 20.941406 206.128906 21.710938 206.664062 C 22.484375 207.199219 23.28125 207.6875 24.109375 208.125 C 24.941406 208.566406 25.792969 208.953125 26.667969 209.289062 C 27.542969 209.628906 28.433594 209.910156 29.34375 210.140625 C 30.253906 210.367188 31.175781 210.542969 32.105469 210.660156 C 33.035156 210.777344 33.96875 210.839844 34.910156 210.847656 C 35.847656 210.851562 36.78125 210.800781 37.714844 210.695312 C 38.644531 210.585938 39.566406 210.425781 40.480469 210.207031 C 41.390625 209.988281 42.289062 209.714844 43.167969 209.390625 C 44.046875 209.0625 44.902344 208.683594 45.738281 208.253906 C 46.570312 207.824219 47.378906 207.347656 48.152344 206.820312 C 48.929688 206.296875 49.671875 205.722656 50.378906 205.109375 C 51.085938 204.492188 51.753906 203.835938 52.382812 203.140625 C 53.011719 202.441406 53.597656 201.710938 54.136719 200.945312 C 54.675781 200.179688 55.167969 199.382812 55.613281 198.554688 C 56.058594 197.730469 56.449219 196.878906 56.792969 196.003906 C 57.132812 195.132812 57.421875 194.242188 57.65625 193.332031 L 105.480469 193.332031 C 105.789062 197.703125 106.445312 202.015625 107.449219 206.277344 C 108.457031 210.539062 109.796875 214.695312 111.476562 218.738281 C 113.152344 222.785156 115.144531 226.667969 117.449219 230.390625 C 119.753906 234.117188 122.34375 237.628906 125.21875 240.933594 L 91.359375 274.765625 C 90.550781 274.289062 89.714844 273.863281 88.855469 273.488281 C 87.996094 273.109375 87.117188 272.789062 86.21875 272.519531 C 85.320312 272.25 84.410156 272.035156 83.484375 271.875 C 82.5625 271.714844 81.632812 271.609375 80.695312 271.5625 C 79.757812 271.515625 78.820312 271.523438 77.886719 271.589844 C 76.949219 271.65625 76.019531 271.777344 75.101562 271.953125 C 74.179688 272.128906 73.269531 272.363281 72.378906 272.648438 C 71.484375 272.933594 70.613281 273.273438 69.757812 273.664062 C 68.90625 274.054688 68.082031 274.496094 67.28125 274.988281 C 66.484375 275.480469 65.714844 276.015625 64.980469 276.601562 C 64.246094 277.183594 63.550781 277.808594 62.890625 278.476562 C 62.230469 279.144531 61.617188 279.851562 61.042969 280.589844 C 60.46875 281.332031 59.941406 282.105469 59.457031 282.914062 C 58.976562 283.71875 58.546875 284.550781 58.167969 285.40625 C 57.785156 286.261719 57.457031 287.140625 57.183594 288.039062 C 56.90625 288.933594 56.6875 289.84375 56.523438 290.769531 C 56.355469 291.691406 56.246094 292.621094 56.195312 293.558594 C 56.140625 294.496094 56.144531 295.429688 56.203125 296.367188 C 56.261719 297.304688 56.378906 298.230469 56.550781 299.152344 C 56.722656 300.078125 56.949219 300.984375 57.230469 301.878906 C 57.511719 302.773438 57.84375 303.648438 58.230469 304.503906 C 58.617188 305.359375 59.054688 306.1875 59.539062 306.988281 C 60.027344 307.792969 60.558594 308.5625 61.136719 309.300781 C 61.714844 310.039062 62.339844 310.738281 63 311.402344 C 63.664062 312.066406 64.367188 312.683594 65.105469 313.265625 C 65.84375 313.84375 66.613281 314.375 67.414062 314.859375 C 68.21875 315.347656 69.046875 315.78125 69.902344 316.167969 C 70.757812 316.554688 71.632812 316.886719 72.527344 317.167969 C 73.421875 317.449219 74.332031 317.671875 75.253906 317.84375 C 76.175781 318.015625 77.105469 318.128906 78.042969 318.1875 C 78.976562 318.246094 79.914062 318.25 80.851562 318.195312 C 81.785156 318.140625 82.714844 318.03125 83.640625 317.867188 C 84.5625 317.699219 85.472656 317.480469 86.371094 317.203125 C 87.265625 316.929688 88.144531 316.601562 89 316.21875 C 89.855469 315.835938 90.6875 315.40625 91.492188 314.925781 C 92.296875 314.441406 93.070312 313.914062 93.8125 313.339844 C 94.554688 312.765625 95.257812 312.148438 95.925781 311.488281 C 96.59375 310.828125 97.21875 310.132812 97.800781 309.398438 C 98.382812 308.664062 98.921875 307.894531 99.410156 307.09375 C 99.902344 306.296875 100.34375 305.46875 100.734375 304.617188 C 101.125 303.765625 101.460938 302.890625 101.75 301.996094 C 102.035156 301.105469 102.265625 300.195312 102.441406 299.277344 C 102.617188 298.355469 102.738281 297.425781 102.804688 296.488281 C 102.867188 295.554688 102.875 294.617188 102.828125 293.679688 C 102.777344 292.746094 102.675781 291.8125 102.515625 290.890625 C 102.355469 289.964844 102.136719 289.054688 101.867188 288.15625 C 101.597656 287.257812 101.273438 286.378906 100.898438 285.519531 C 100.523438 284.660156 100.097656 283.828125 99.621094 283.019531 L 133.476562 249.160156 C 136.78125 252.035156 140.292969 254.628906 144.015625 256.933594 C 147.738281 259.242188 151.621094 261.238281 155.667969 262.917969 C 159.710938 264.597656 163.867188 265.941406 168.128906 266.949219 C 172.390625 267.957031 176.703125 268.617188 181.074219 268.925781 L 181.074219 316.75 C 180.164062 316.984375 179.273438 317.273438 178.402344 317.613281 C 177.527344 317.957031 176.675781 318.347656 175.851562 318.792969 C 175.023438 319.238281 174.230469 319.730469 173.460938 320.269531 C 172.695312 320.808594 171.964844 321.394531 171.265625 322.023438 C 170.570312 322.652344 169.914062 323.320312 169.296875 324.027344 C 168.683594 324.734375 168.113281 325.476562 167.585938 326.253906 C 167.058594 327.03125 166.582031 327.835938 166.152344 328.667969 C 165.722656 329.503906 165.34375 330.359375 165.015625 331.238281 C 164.691406 332.117188 164.417969 333.015625 164.199219 333.925781 C 163.984375 334.839844 163.820312 335.761719 163.714844 336.691406 C 163.605469 337.625 163.554688 338.558594 163.5625 339.5 C 163.566406 340.4375 163.628906 341.371094 163.746094 342.300781 C 163.863281 343.230469 164.039062 344.152344 164.265625 345.0625 C 164.496094 345.972656 164.78125 346.863281 165.117188 347.738281 C 165.453125 348.613281 165.839844 349.46875 166.28125 350.296875 C 166.71875 351.125 167.207031 351.925781 167.742188 352.695312 C 168.277344 353.464844 168.859375 354.199219 169.484375 354.898438 C 170.105469 355.601562 170.769531 356.257812 171.476562 356.878906 C 172.179688 357.5 172.917969 358.074219 173.691406 358.605469 C 174.464844 359.136719 175.265625 359.621094 176.097656 360.054688 C 176.929688 360.488281 177.785156 360.871094 178.660156 361.203125 C 179.539062 361.535156 180.433594 361.8125 181.34375 362.035156 C 182.253906 362.261719 183.175781 362.429688 184.105469 362.539062 C 185.039062 362.652344 185.972656 362.710938 186.910156 362.710938 C 187.847656 362.710938 188.785156 362.652344 189.714844 362.539062 C 190.648438 362.429688 191.566406 362.261719 192.480469 362.035156 C 193.390625 361.8125 194.285156 361.535156 195.160156 361.203125 C 196.039062 360.871094 196.894531 360.488281 197.726562 360.054688 C 198.554688 359.621094 199.359375 359.136719 200.132812 358.605469 C 200.90625 358.074219 201.644531 357.5 202.347656 356.878906 C 203.050781 356.257812 203.714844 355.601562 204.339844 354.898438 C 204.964844 354.199219 205.542969 353.464844 206.078125 352.695312 C 206.617188 351.925781 207.101562 351.125 207.542969 350.296875 C 207.980469 349.46875 208.371094 348.613281 208.707031 347.738281 C 209.042969 346.863281 209.328125 345.972656 209.554688 345.0625 C 209.785156 344.152344 209.957031 343.230469 210.078125 342.300781 C 210.195312 341.371094 210.257812 340.4375 210.261719 339.5 C 210.269531 338.558594 210.21875 337.625 210.109375 336.691406 C 210.003906 335.761719 209.839844 334.839844 209.621094 333.925781 C 209.402344 333.015625 209.132812 332.117188 208.804688 331.238281 C 208.480469 330.359375 208.101562 329.503906 207.671875 328.667969 C 207.242188 327.835938 206.765625 327.03125 206.238281 326.253906 C 205.710938 325.476562 205.140625 324.734375 204.523438 324.027344 C 203.910156 323.320312 203.253906 322.652344 202.554688 322.023438 C 201.859375 321.394531 201.128906 320.808594 200.359375 320.269531 C 199.59375 319.730469 198.796875 319.238281 197.972656 318.792969 C 197.144531 318.347656 196.296875 317.957031 195.421875 317.613281 C 194.546875 317.273438 193.65625 316.984375 192.75 316.75 L 192.75 268.925781 C 197.117188 268.617188 201.433594 267.960938 205.695312 266.953125 C 209.957031 265.949219 214.109375 264.609375 218.15625 262.929688 C 222.199219 261.253906 226.085938 259.261719 229.808594 256.957031 C 233.53125 254.652344 237.046875 252.0625 240.351562 249.1875 L 274.179688 283.046875 C 273.703125 283.855469 273.277344 284.691406 272.902344 285.550781 C 272.527344 286.410156 272.203125 287.289062 271.933594 288.1875 C 271.664062 289.085938 271.449219 289.996094 271.289062 290.921875 C 271.128906 291.84375 271.027344 292.777344 270.980469 293.710938 C 270.933594 294.648438 270.941406 295.585938 271.003906 296.519531 C 271.070312 297.457031 271.191406 298.386719 271.367188 299.308594 C 271.546875 300.226562 271.777344 301.136719 272.0625 302.027344 C 272.351562 302.921875 272.691406 303.792969 273.082031 304.648438 C 273.472656 305.5 273.914062 306.324219 274.40625 307.125 C 274.894531 307.921875 275.433594 308.691406 276.015625 309.425781 C 276.601562 310.160156 277.226562 310.855469 277.894531 311.515625 C 278.5625 312.175781 279.265625 312.789062 280.007812 313.363281 C 280.75 313.9375 281.523438 314.464844 282.328125 314.949219 C 283.132812 315.429688 283.964844 315.859375 284.824219 316.238281 C 285.679688 316.621094 286.558594 316.949219 287.453125 317.222656 C 288.351562 317.5 289.261719 317.71875 290.183594 317.882812 C 291.105469 318.050781 292.039062 318.160156 292.972656 318.210938 C 293.910156 318.265625 294.847656 318.261719 295.78125 318.203125 C 296.71875 318.144531 297.648438 318.027344 298.570312 317.855469 C 299.492188 317.683594 300.402344 317.457031 301.296875 317.175781 C 302.191406 316.894531 303.066406 316.5625 303.921875 316.175781 C 304.777344 315.789062 305.605469 315.351562 306.40625 314.867188 C 307.207031 314.378906 307.976562 313.847656 308.714844 313.269531 C 309.453125 312.691406 310.15625 312.070312 310.816406 311.40625 C 311.480469 310.742188 312.101562 310.039062 312.679688 309.300781 C 313.257812 308.5625 313.792969 307.792969 314.277344 306.992188 C 314.761719 306.1875 315.199219 305.359375 315.585938 304.503906 C 315.96875 303.648438 316.304688 302.773438 316.582031 301.878906 C 316.863281 300.984375 317.089844 300.074219 317.261719 299.152344 C 317.429688 298.230469 317.546875 297.300781 317.605469 296.363281 C 317.664062 295.429688 317.667969 294.492188 317.613281 293.554688 C 317.558594 292.621094 317.449219 291.691406 317.28125 290.765625 C 317.117188 289.84375 316.894531 288.933594 316.621094 288.035156 C 316.34375 287.140625 316.015625 286.261719 315.632812 285.40625 C 315.253906 284.550781 314.820312 283.71875 314.339844 282.914062 C 313.859375 282.109375 313.332031 281.335938 312.757812 280.59375 C 312.179688 279.851562 311.5625 279.148438 310.90625 278.480469 C 310.246094 277.8125 309.546875 277.1875 308.8125 276.605469 C 308.078125 276.023438 307.3125 275.484375 306.511719 274.996094 C 305.710938 274.503906 304.886719 274.0625 304.035156 273.671875 C 303.179688 273.28125 302.308594 272.945312 301.414062 272.65625 C 300.519531 272.371094 299.613281 272.140625 298.691406 271.964844 C 297.769531 271.789062 296.84375 271.667969 295.90625 271.601562 C 294.96875 271.539062 294.035156 271.53125 293.097656 271.578125 C 292.160156 271.628906 291.230469 271.730469 290.304688 271.890625 C 289.382812 272.050781 288.46875 272.269531 287.570312 272.539062 C 286.671875 272.808594 285.796875 273.132812 284.9375 273.507812 C 284.078125 273.882812 283.242188 274.3125 282.433594 274.789062 L 248.574219 240.957031 C 251.453125 237.652344 254.046875 234.136719 256.355469 230.414062 C 258.664062 226.6875 260.65625 222.800781 262.335938 218.753906 C 264.015625 214.707031 265.359375 210.550781 266.367188 206.285156 C 267.375 202.023438 268.035156 197.703125 268.34375 193.332031 L 316.164062 193.332031 C 316.347656 194.03125 316.5625 194.722656 316.808594 195.402344 C 317.054688 196.082031 317.332031 196.746094 317.640625 197.398438 C 317.945312 198.054688 318.285156 198.691406 318.652344 199.3125 C 319.019531 199.9375 319.414062 200.539062 319.839844 201.125 C 320.261719 201.710938 320.710938 202.277344 321.1875 202.820312 C 321.664062 203.363281 322.164062 203.882812 322.6875 204.378906 C 323.210938 204.878906 323.757812 205.347656 324.328125 205.796875 C 324.894531 206.242188 325.484375 206.660156 326.089844 207.050781 C 326.695312 207.445312 327.320312 207.808594 327.960938 208.140625 C 328.601562 208.472656 329.257812 208.777344 329.925781 209.050781 C 330.597656 209.324219 331.277344 209.566406 331.96875 209.773438 C 332.660156 209.984375 333.359375 210.160156 334.066406 210.304688 C 334.773438 210.449219 335.488281 210.5625 336.207031 210.640625 C 336.925781 210.71875 337.644531 210.761719 338.367188 210.773438 C 339.089844 210.785156 339.8125 210.761719 340.53125 210.707031 C 341.253906 210.652344 341.96875 210.5625 342.679688 210.4375 C 343.394531 210.316406 344.097656 210.160156 344.796875 209.972656 C 345.492188 209.785156 346.179688 209.566406 346.859375 209.3125 C 347.535156 209.0625 348.199219 208.777344 348.851562 208.464844 C 349.5 208.152344 350.136719 207.808594 350.753906 207.4375 C 351.375 207.0625 351.972656 206.664062 352.554688 206.234375 C 353.136719 205.804688 353.699219 205.351562 354.238281 204.871094 C 354.777344 204.390625 355.292969 203.886719 355.785156 203.355469 C 356.277344 202.828125 356.746094 202.277344 357.1875 201.707031 C 357.628906 201.132812 358.042969 200.542969 358.429688 199.933594 C 358.816406 199.320312 359.171875 198.695312 359.5 198.050781 C 359.828125 197.40625 360.128906 196.75 360.394531 196.078125 C 360.660156 195.40625 360.898438 194.722656 361.101562 194.03125 C 361.304688 193.339844 361.476562 192.636719 361.613281 191.925781 C 361.753906 191.21875 361.855469 190.503906 361.929688 189.785156 C 362 189.066406 362.039062 188.34375 362.046875 187.625 C 362.050781 186.902344 362.023438 186.179688 361.960938 185.460938 C 361.898438 184.738281 361.800781 184.023438 361.675781 183.3125 C 361.546875 182.601562 361.382812 181.898438 361.191406 181.203125 C 360.996094 180.507812 360.769531 179.820312 360.511719 179.144531 C 360.253906 178.46875 359.96875 177.808594 359.648438 177.160156 C 359.328125 176.511719 358.980469 175.878906 358.601562 175.265625 C 358.222656 174.648438 357.816406 174.050781 357.386719 173.472656 C 356.953125 172.894531 356.492188 172.339844 356.007812 171.804688 C 355.523438 171.269531 355.011719 170.757812 354.480469 170.269531 C 353.945312 169.78125 353.394531 169.316406 352.816406 168.882812 C 352.242188 168.445312 351.648438 168.035156 351.03125 167.65625 C 350.417969 167.273438 349.789062 166.921875 349.140625 166.597656 C 348.496094 166.277344 347.835938 165.984375 347.164062 165.722656 C 346.488281 165.460938 345.804688 165.230469 345.109375 165.035156 C 344.414062 164.835938 343.710938 164.671875 343 164.539062 C 342.289062 164.40625 341.574219 164.308594 340.855469 164.242188 C 340.136719 164.175781 339.414062 164.144531 338.691406 164.144531 Z M 232.386719 202.753906 L 191.523438 255.296875 C 191.25 255.648438 190.941406 255.960938 190.597656 256.242188 C 190.25 256.523438 189.878906 256.761719 189.480469 256.957031 C 189.078125 257.15625 188.664062 257.300781 188.230469 257.402344 C 187.796875 257.503906 187.355469 257.554688 186.910156 257.554688 C 186.464844 257.554688 186.027344 257.503906 185.59375 257.402344 C 185.160156 257.300781 184.742188 257.15625 184.34375 256.957031 C 183.945312 256.761719 183.570312 256.523438 183.226562 256.242188 C 182.882812 255.960938 182.574219 255.648438 182.300781 255.296875 L 141.433594 202.753906 C 141.089844 202.308594 140.8125 201.820312 140.605469 201.292969 C 140.402344 200.765625 140.277344 200.222656 140.230469 199.65625 C 140.183594 199.09375 140.21875 198.535156 140.332031 197.980469 C 140.449219 197.425781 140.640625 196.902344 140.910156 196.402344 L 181.773438 120.511719 C 181.910156 120.296875 182.058594 120.089844 182.222656 119.890625 C 182.382812 119.695312 182.558594 119.507812 182.742188 119.332031 C 182.929688 119.15625 183.125 118.996094 183.332031 118.84375 C 183.539062 118.695312 183.753906 118.554688 183.976562 118.433594 C 184.199219 118.308594 184.433594 118.199219 184.667969 118.105469 C 184.90625 118.011719 185.148438 117.933594 185.398438 117.867188 C 185.644531 117.804688 185.894531 117.757812 186.148438 117.726562 C 186.402344 117.691406 186.65625 117.675781 186.910156 117.675781 C 187.167969 117.675781 187.421875 117.691406 187.675781 117.726562 C 187.929688 117.757812 188.179688 117.804688 188.425781 117.867188 C 188.671875 117.933594 188.917969 118.011719 189.152344 118.105469 C 189.390625 118.199219 189.621094 118.308594 189.84375 118.433594 C 190.070312 118.554688 190.285156 118.695312 190.492188 118.84375 C 190.695312 118.996094 190.894531 119.15625 191.078125 119.332031 C 191.265625 119.507812 191.4375 119.695312 191.601562 119.890625 C 191.761719 120.089844 191.914062 120.296875 192.046875 120.511719 L 232.914062 196.402344 C 233.183594 196.902344 233.375 197.425781 233.488281 197.980469 C 233.605469 198.535156 233.640625 199.09375 233.59375 199.65625 C 233.546875 200.222656 233.421875 200.765625 233.214844 201.292969 C 233.011719 201.820312 232.734375 202.308594 232.386719 202.753906 Z M 232.386719 202.753906 " fill-opacity="1" fill-rule="nonzero"/></g></svg>