<svg xmlns="http://www.w3.org/2000/svg" xmlns:xlink="http://www.w3.org/1999/xlink" width="500" zoomAndPan="magnify" viewBox="0 0 375 374.999991" height="500" preserveAspectRatio="xMidYMid meet" version="1.0"><path fill="#ffffff" d="M 175 156.25 C 175 157.070312 174.960938 157.886719 174.878906 158.699219 C 174.800781 159.515625 174.679688 160.324219 174.519531 161.128906 C 174.359375 161.929688 174.160156 162.722656 173.921875 163.507812 C 173.6875 164.289062 173.410156 165.0625 173.097656 165.816406 C 172.785156 166.574219 172.433594 167.3125 172.046875 168.035156 C 171.660156 168.757812 171.242188 169.457031 170.785156 170.140625 C 170.332031 170.820312 169.84375 171.476562 169.324219 172.109375 C 168.804688 172.742188 168.257812 173.347656 167.675781 173.925781 C 167.097656 174.507812 166.492188 175.054688 165.859375 175.574219 C 165.226562 176.09375 164.570312 176.582031 163.890625 177.035156 C 163.207031 177.492188 162.507812 177.910156 161.785156 178.296875 C 161.0625 178.683594 160.324219 179.035156 159.566406 179.347656 C 158.8125 179.660156 158.039062 179.9375 157.257812 180.171875 C 156.472656 180.410156 155.679688 180.609375 154.878906 180.769531 C 154.074219 180.929688 153.265625 181.050781 152.449219 181.128906 C 151.636719 181.210938 150.820312 181.25 150 181.25 C 149.179688 181.25 148.363281 181.210938 147.550781 181.128906 C 146.734375 181.050781 145.925781 180.929688 145.121094 180.769531 C 144.320312 180.609375 143.527344 180.410156 142.742188 180.171875 C 141.960938 179.9375 141.1875 179.660156 140.433594 179.347656 C 139.675781 179.035156 138.9375 178.683594 138.214844 178.296875 C 137.492188 177.910156 136.792969 177.492188 136.109375 177.035156 C 135.429688 176.582031 134.773438 176.09375 134.140625 175.574219 C 133.507812 175.054688 132.902344 174.507812 132.324219 173.925781 C 131.742188 173.347656 131.195312 172.742188 130.675781 172.109375 C 130.15625 171.476562 129.667969 170.820312 129.214844 170.140625 C 128.757812 169.457031 128.339844 168.757812 127.953125 168.035156 C 127.566406 167.3125 127.214844 166.574219 126.902344 165.816406 C 126.589844 165.0625 126.3125 164.289062 126.078125 163.507812 C 125.839844 162.722656 125.640625 161.929688 125.480469 161.128906 C 125.320312 160.324219 125.199219 159.515625 125.121094 158.699219 C 125.039062 157.886719 125 157.070312 125 156.25 C 125 155.429688 125.039062 154.613281 125.121094 153.800781 C 125.199219 152.984375 125.320312 152.175781 125.480469 151.371094 C 125.640625 150.570312 125.839844 149.777344 126.078125 148.992188 C 126.3125 148.210938 126.589844 147.4375 126.902344 146.683594 C 127.214844 145.925781 127.566406 145.1875 127.953125 144.464844 C 128.339844 143.742188 128.757812 143.042969 129.214844 142.359375 C 129.667969 141.679688 130.15625 141.023438 130.675781 140.390625 C 131.195312 139.757812 131.742188 139.152344 132.324219 138.574219 C 132.902344 137.992188 133.507812 137.445312 134.140625 136.925781 C 134.773438 136.40625 135.429688 135.917969 136.109375 135.464844 C 136.792969 135.007812 137.492188 134.589844 138.214844 134.203125 C 138.9375 133.816406 139.675781 133.464844 140.433594 133.152344 C 141.1875 132.839844 141.960938 132.5625 142.742188 132.328125 C 143.527344 132.089844 144.320312 131.890625 145.121094 131.730469 C 145.925781 131.570312 146.734375 131.449219 147.550781 131.371094 C 148.363281 131.289062 149.179688 131.25 150 131.25 C 150.820312 131.25 151.636719 131.289062 152.449219 131.371094 C 153.265625 131.449219 154.074219 131.570312 154.878906 131.730469 C 155.679688 131.890625 156.472656 132.089844 157.257812 132.328125 C 158.039062 132.5625 158.8125 132.839844 159.566406 133.152344 C 160.324219 133.464844 161.0625 133.816406 161.785156 134.203125 C 162.507812 134.589844 163.207031 135.007812 163.890625 135.464844 C 164.570312 135.917969 165.226562 136.40625 165.859375 136.925781 C 166.492188 137.445312 167.097656 137.992188 167.675781 138.574219 C 168.257812 139.152344 168.804688 139.757812 169.324219 140.390625 C 169.84375 141.023438 170.332031 141.679688 170.785156 142.359375 C 171.242188 143.042969 171.660156 143.742188 172.046875 144.464844 C 172.433594 145.1875 172.785156 145.925781 173.097656 146.683594 C 173.410156 147.4375 173.6875 148.210938 173.921875 148.992188 C 174.160156 149.777344 174.359375 150.570312 174.519531 151.371094 C 174.679688 152.175781 174.800781 152.984375 174.878906 153.800781 C 174.960938 154.613281 175 155.429688 175 156.25 Z M 175 156.25 " fill-opacity="1" fill-rule="nonzero"/><path fill="#ffffff" d="M 287.5 187.5 C 287.5 188.113281 287.46875 188.726562 287.410156 189.335938 C 287.347656 189.949219 287.257812 190.554688 287.140625 191.15625 C 287.019531 191.761719 286.871094 192.355469 286.691406 192.941406 C 286.515625 193.53125 286.308594 194.109375 286.074219 194.675781 C 285.835938 195.242188 285.574219 195.796875 285.285156 196.339844 C 284.996094 196.878906 284.679688 197.40625 284.339844 197.917969 C 284 198.425781 283.632812 198.921875 283.242188 199.394531 C 282.855469 199.871094 282.441406 200.324219 282.007812 200.757812 C 281.574219 201.191406 281.121094 201.605469 280.644531 201.992188 C 280.171875 202.382812 279.675781 202.75 279.167969 203.089844 C 278.65625 203.429688 278.128906 203.746094 277.589844 204.035156 C 277.046875 204.324219 276.492188 204.585938 275.925781 204.824219 C 275.359375 205.058594 274.78125 205.265625 274.191406 205.441406 C 273.605469 205.621094 273.011719 205.769531 272.40625 205.890625 C 271.804688 206.007812 271.199219 206.097656 270.585938 206.160156 C 269.976562 206.21875 269.363281 206.25 268.75 206.25 C 268.136719 206.25 267.523438 206.21875 266.914062 206.160156 C 266.300781 206.097656 265.695312 206.007812 265.09375 205.890625 C 264.488281 205.769531 263.894531 205.621094 263.308594 205.441406 C 262.71875 205.265625 262.140625 205.058594 261.574219 204.824219 C 261.007812 204.585938 260.453125 204.324219 259.910156 204.035156 C 259.371094 203.746094 258.84375 203.429688 258.332031 203.089844 C 257.824219 202.75 257.328125 202.382812 256.855469 201.992188 C 256.378906 201.605469 255.925781 201.191406 255.492188 200.757812 C 255.058594 200.324219 254.644531 199.871094 254.257812 199.394531 C 253.867188 198.921875 253.5 198.425781 253.160156 197.917969 C 252.820312 197.40625 252.503906 196.878906 252.214844 196.339844 C 251.925781 195.796875 251.664062 195.242188 251.425781 194.675781 C 251.191406 194.109375 250.984375 193.53125 250.808594 192.941406 C 250.628906 192.355469 250.480469 191.761719 250.359375 191.15625 C 250.242188 190.554688 250.152344 189.949219 250.089844 189.335938 C 250.03125 188.726562 250 188.113281 250 187.5 C 250 186.886719 250.03125 186.273438 250.089844 185.664062 C 250.152344 185.050781 250.242188 184.445312 250.359375 183.84375 C 250.480469 183.238281 250.628906 182.644531 250.808594 182.058594 C 250.984375 181.46875 251.191406 180.890625 251.425781 180.324219 C 251.664062 179.757812 251.925781 179.203125 252.214844 178.660156 C 252.503906 178.121094 252.820312 177.59375 253.160156 177.082031 C 253.5 176.574219 253.867188 176.078125 254.257812 175.605469 C 254.644531 175.128906 255.058594 174.675781 255.492188 174.242188 C 255.925781 173.808594 256.378906 173.394531 256.855469 173.007812 C 257.328125 172.617188 257.824219 172.25 258.332031 171.910156 C 258.84375 171.570312 259.371094 171.253906 259.910156 170.964844 C 260.453125 170.675781 261.007812 170.414062 261.574219 170.175781 C 262.140625 169.941406 262.71875 169.734375 263.308594 169.558594 C 263.894531 169.378906 264.488281 169.230469 265.09375 169.109375 C 265.695312 168.992188 266.300781 168.902344 266.914062 168.839844 C 267.523438 168.78125 268.136719 168.75 268.75 168.75 C 269.363281 168.75 269.976562 168.78125 270.585938 168.839844 C 271.199219 168.902344 271.804688 168.992188 272.40625 169.109375 C 273.011719 169.230469 273.605469 169.378906 274.191406 169.558594 C 274.78125 169.734375 275.359375 169.941406 275.925781 170.175781 C 276.492188 170.414062 277.046875 170.675781 277.589844 170.964844 C 278.128906 171.253906 278.65625 171.570312 279.167969 171.910156 C 279.675781 172.25 280.171875 172.617188 280.644531 173.007812 C 281.121094 173.394531 281.574219 173.808594 282.007812 174.242188 C 282.441406 174.675781 282.855469 175.128906 283.242188 175.605469 C 283.632812 176.078125 284 176.574219 284.339844 177.082031 C 284.679688 177.59375 284.996094 178.121094 285.285156 178.660156 C 285.574219 179.203125 285.835938 179.757812 286.074219 180.324219 C 286.308594 180.890625 286.515625 181.46875 286.691406 182.058594 C 286.871094 182.644531 287.019531 183.238281 287.140625 183.84375 C 287.257812 184.445312 287.347656 185.050781 287.410156 185.664062 C 287.46875 186.273438 287.5 186.886719 287.5 187.5 Z M 287.5 187.5 " fill-opacity="1" fill-rule="nonzero"/><path fill="#ffffff" d="M 268.75 112.5 C 268.75 95.25 254.75 81.25 237.5 81.25 C 235.3125 81.25 233.125 81.5 231.0625 81.9375 C 231.125 80.6875 231.25 79.4375 231.25 78.125 C 231.25 35 196.25 0 153.125 0 C 110 0 75 35 75 78.125 C 75 83.5625 75.5625 88.875 76.625 94 C 37.375 96.375 6.25 128.875 6.25 168.75 C 6.25 210.1875 39.8125 243.75 81.25 243.75 L 300 243.75 C 338 243.75 368.75 213 368.75 175 C 368.75 137 338 106.25 300 106.25 C 288.6875 106.25 278 109.0625 268.625 113.875 C 268.625 113.4375 268.75 113 268.75 112.5 Z M 153.125 25 C 159.199219 25 165.15625 26.023438 170.835938 28.039062 L 166.664062 39.820312 C 162.324219 38.28125 157.769531 37.5 153.125 37.5 Z M 135.414062 28.039062 L 139.59375 39.820312 C 123.386719 45.5625 112.5 60.957031 112.5 78.125 L 100 78.125 C 100 55.675781 114.230469 35.550781 135.414062 28.039062 Z M 211.9375 164.1875 L 198.0625 169.875 C 197 173.625 195.5 177.25 193.625 180.625 L 199.375 194.4375 C 196.125 198.625 192.375 202.375 188.1875 205.625 L 174.375 199.875 C 171 201.75 167.375 203.25 163.625 204.3125 L 157.9375 218.1875 C 155.3125 218.5 152.6875 218.75 150 218.75 C 147.3125 218.75 144.6875 218.5 142.0625 218.1875 L 136.375 204.3125 C 132.625 203.25 129 201.75 125.625 199.875 L 111.8125 205.625 C 107.625 202.375 103.875 198.625 100.625 194.4375 L 106.375 180.625 C 104.5 177.25 103 173.625 101.9375 169.875 L 88.0625 164.1875 C 87.75 161.5625 87.5 158.9375 87.5 156.25 C 87.5 153.5625 87.75 150.9375 88.0625 148.3125 L 101.9375 142.625 C 103 138.875 104.5 135.25 106.375 131.875 L 100.625 118.0625 C 103.875 113.875 107.625 110.125 111.8125 106.875 L 125.625 112.625 C 129 110.75 132.625 109.25 136.375 108.1875 L 142.0625 94.3125 C 144.6875 94 147.3125 93.75 150 93.75 C 152.6875 93.75 155.3125 94 157.9375 94.3125 L 163.625 108.1875 C 167.375 109.25 171 110.75 174.375 112.625 L 188.1875 106.875 C 192.375 110.125 196.125 113.875 199.375 118.0625 L 193.625 131.875 C 195.5 135.25 197 138.875 198.0625 142.625 L 211.9375 148.3125 C 212.25 150.9375 212.5 153.5625 212.5 156.25 C 212.5 158.9375 212.25 161.5625 211.9375 164.1875 Z M 275 150 L 275 156.882812 C 276.238281 157.132812 277.394531 157.585938 278.574219 157.988281 L 282.085938 151.898438 L 292.914062 158.148438 L 289.398438 164.230469 C 290.324219 165.054688 291.195312 165.917969 292.019531 166.851562 L 298.101562 163.335938 L 304.351562 174.164062 L 298.261719 177.675781 C 298.65625 178.855469 299.113281 180.011719 299.367188 181.25 L 306.25 181.25 L 306.25 193.75 L 299.367188 193.75 C 299.117188 194.988281 298.664062 196.144531 298.261719 197.324219 L 304.351562 200.835938 L 298.101562 211.664062 L 292.019531 208.148438 C 291.195312 209.074219 290.332031 209.945312 289.398438 210.769531 L 292.914062 216.851562 L 282.085938 223.101562 L 278.574219 217.011719 C 277.394531 217.40625 276.238281 217.863281 275 218.117188 L 275 225 L 262.5 225 L 262.5 218.117188 C 261.261719 217.867188 260.105469 217.414062 258.925781 217.011719 L 255.414062 223.101562 L 244.585938 216.851562 L 248.101562 210.769531 C 247.175781 209.945312 246.304688 209.082031 245.480469 208.148438 L 239.398438 211.664062 L 233.148438 200.835938 L 239.238281 197.324219 C 238.84375 196.144531 238.386719 194.988281 238.132812 193.75 L 231.25 193.75 L 231.25 181.25 L 238.132812 181.25 C 238.382812 180.011719 238.835938 178.855469 239.238281 177.675781 L 233.148438 174.164062 L 239.398438 163.335938 L 245.480469 166.851562 C 246.304688 165.925781 247.167969 165.054688 248.101562 164.230469 L 244.585938 158.148438 L 255.414062 151.898438 L 258.925781 157.988281 C 260.105469 157.59375 261.261719 157.136719 262.5 156.882812 L 262.5 150 Z M 275 150 " fill-opacity="1" fill-rule="nonzero"/><path fill="#ffffff" d="M 68.75 287.5 L 87.5 287.5 L 87.5 300 L 68.75 300 Z M 68.75 287.5 " fill-opacity="1" fill-rule="nonzero"/><path fill="#ffffff" d="M 156.25 312.5 L 131.25 312.5 L 131.25 325 L 168.75 325 L 168.75 281.25 L 156.25 281.25 Z M 156.25 312.5 " fill-opacity="1" fill-rule="nonzero"/><path fill="#ffffff" d="M 100 312.5 L 118.75 312.5 L 118.75 325 L 100 325 Z M 100 312.5 " fill-opacity="1" fill-rule="nonzero"/><path fill="#ffffff" d="M 68.75 312.5 L 87.5 312.5 L 87.5 325 L 68.75 325 Z M 68.75 312.5 " fill-opacity="1" fill-rule="nonzero"/><path fill="#ffffff" d="M 106.25 337.5 L 156.25 337.5 L 156.25 350 L 106.25 350 Z M 106.25 337.5 " fill-opacity="1" fill-rule="nonzero"/><path fill="#ffffff" d="M 81.25 362.5 L 93.75 362.5 L 93.75 375 L 81.25 375 Z M 81.25 362.5 " fill-opacity="1" fill-rule="nonzero"/><path fill="#ffffff" d="M 106.25 362.5 L 118.75 362.5 L 118.75 375 L 106.25 375 Z M 106.25 362.5 " fill-opacity="1" fill-rule="nonzero"/><path fill="#ffffff" d="M 131.25 362.5 L 143.75 362.5 L 143.75 375 L 131.25 375 Z M 131.25 362.5 " fill-opacity="1" fill-rule="nonzero"/><path fill="#ffffff" d="M 206.25 362.5 L 156.25 362.5 L 156.25 375 L 218.75 375 L 218.75 337.5 L 206.25 337.5 Z M 206.25 362.5 " fill-opacity="1" fill-rule="nonzero"/><path fill="#ffffff" d="M 206.25 293.75 L 218.75 293.75 L 218.75 325 L 206.25 325 Z M 206.25 293.75 " fill-opacity="1" fill-rule="nonzero"/><path fill="#ffffff" d="M 375 293.75 C 375 283.4375 366.5625 275 356.25 275 C 348.136719 275 341.257812 280.25 338.65625 287.5 L 312.5 287.5 L 312.5 300 L 338.65625 300 C 341.257812 307.25 348.136719 312.5 356.25 312.5 C 366.5625 312.5 375 304.0625 375 293.75 Z M 375 293.75 " fill-opacity="1" fill-rule="nonzero"/><path fill="#ffffff" d="M 37.5 325 C 27.1875 325 18.75 333.4375 18.75 343.75 C 18.75 354.0625 27.1875 362.5 37.5 362.5 C 45.613281 362.5 52.492188 357.25 55.09375 350 L 93.75 350 L 93.75 337.5 L 55.09375 337.5 C 52.492188 330.25 45.613281 325 37.5 325 Z M 37.5 325 " fill-opacity="1" fill-rule="nonzero"/><path fill="#ffffff" d="M 18.75 312.5 C 26.863281 312.5 33.742188 307.25 36.34375 300 L 56.25 300 L 56.25 287.5 L 36.34375 287.5 C 33.742188 280.25 26.863281 275 18.75 275 C 8.4375 275 0 283.4375 0 293.75 C 0 304.0625 8.4375 312.5 18.75 312.5 Z M 18.75 312.5 " fill-opacity="1" fill-rule="nonzero"/><path fill="#ffffff" d="M 281.25 312.5 L 300 312.5 L 300 325 L 281.25 325 Z M 281.25 312.5 " fill-opacity="1" fill-rule="nonzero"/><path fill="#ffffff" d="M 312.5 312.5 L 331.25 312.5 L 331.25 325 L 312.5 325 Z M 312.5 312.5 " fill-opacity="1" fill-rule="nonzero"/><path fill="#ffffff" d="M 156.25 256.25 L 168.75 256.25 L 168.75 268.75 L 156.25 268.75 Z M 156.25 256.25 " fill-opacity="1" fill-rule="nonzero"/><path fill="#ffffff" d="M 131.25 287.5 L 100 287.5 L 100 300 L 143.75 300 L 143.75 256.25 L 131.25 256.25 Z M 131.25 287.5 " fill-opacity="1" fill-rule="nonzero"/><path fill="#ffffff" d="M 181.25 337.5 L 168.75 337.5 L 168.75 350 L 193.75 350 L 193.75 256.25 L 181.25 256.25 Z M 181.25 337.5 " fill-opacity="1" fill-rule="nonzero"/><path fill="#ffffff" d="M 256.25 256.25 L 256.25 300 L 300 300 L 300 287.5 L 268.75 287.5 L 268.75 256.25 Z M 256.25 256.25 " fill-opacity="1" fill-rule="nonzero"/><path fill="#ffffff" d="M 206.25 256.25 L 218.75 256.25 L 218.75 281.25 L 206.25 281.25 Z M 206.25 256.25 " fill-opacity="1" fill-rule="nonzero"/><path fill="#ffffff" d="M 231.25 256.25 L 231.25 325 L 268.75 325 L 268.75 312.5 L 243.75 312.5 L 243.75 256.25 Z M 231.25 256.25 " fill-opacity="1" fill-rule="nonzero"/></svg>