<svg xmlns="http://www.w3.org/2000/svg" xmlns:xlink="http://www.w3.org/1999/xlink" width="500" zoomAndPan="magnify" viewBox="0 0 375 374.999991" height="500" preserveAspectRatio="xMidYMid meet" version="1.0"><path fill="#ffffff" d="M 341.527344 302.671875 C 345.566406 306.710938 350.867188 308.726562 356.175781 308.726562 C 361.488281 308.726562 366.789062 306.710938 370.828125 302.671875 C 374.734375 298.761719 376.890625 293.558594 376.890625 288.027344 C 376.890625 282.496094 374.734375 277.289062 370.824219 273.375 C 364.238281 266.792969 354.316406 265.671875 346.488281 269.832031 L 323.347656 246.695312 C 331.203125 228.835938 335.597656 209.121094 335.597656 188.390625 C 335.597656 167.714844 331.226562 148.042969 323.410156 130.21875 L 346.671875 106.957031 C 349.699219 108.5625 353.011719 109.460938 356.359375 109.460938 C 361.660156 109.460938 366.96875 107.445312 371.007812 103.40625 C 374.921875 99.492188 377.078125 94.292969 377.078125 88.753906 C 377.078125 83.214844 374.921875 78.015625 371.007812 74.101562 C 362.929688 66.023438 349.792969 66.023438 341.714844 74.101562 C 337.800781 78.015625 335.644531 83.214844 335.644531 88.753906 C 335.644531 92.210938 336.574219 95.488281 338.15625 98.449219 L 317.8125 118.796875 C 312.097656 108.371094 305.140625 98.726562 297.148438 90.046875 L 346.488281 40.707031 C 349.515625 42.316406 352.824219 43.210938 356.171875 43.210938 C 361.472656 43.210938 366.785156 41.195312 370.824219 37.15625 C 378.898438 29.078125 378.898438 15.9375 370.824219 7.859375 C 362.746094 -0.214844 349.605469 -0.214844 341.527344 7.859375 C 334.941406 14.445312 333.820312 24.367188 337.976562 32.195312 L 288.636719 81.535156 C 279.992188 73.574219 270.386719 66.640625 260.007812 60.9375 L 280.234375 40.714844 C 283.195312 42.296875 286.472656 43.222656 289.929688 43.222656 C 295.460938 43.222656 300.667969 41.070312 304.582031 37.15625 C 312.660156 29.078125 312.660156 15.9375 304.582031 7.859375 C 296.753906 0.03125 283.109375 0.0351562 275.285156 7.859375 C 268.699219 14.453125 267.582031 24.367188 271.734375 32.195312 L 248.601562 55.328125 C 230.734375 47.480469 211.023438 43.085938 190.292969 43.085938 C 169.5625 43.085938 149.847656 47.480469 131.988281 55.335938 L 108.851562 32.195312 C 113.011719 24.367188 111.886719 14.453125 105.308594 7.859375 C 97.480469 0.0351562 83.835938 0.03125 76.011719 7.859375 C 67.933594 15.9375 67.933594 29.078125 76.011719 37.15625 C 79.921875 41.070312 85.125 43.222656 90.660156 43.222656 C 94.117188 43.222656 97.398438 42.296875 100.359375 40.714844 L 120.582031 60.9375 C 110.207031 66.640625 100.601562 73.574219 91.957031 81.535156 L 42.609375 32.195312 C 46.769531 24.367188 45.644531 14.445312 39.058594 7.859375 C 30.980469 -0.214844 17.839844 -0.214844 9.761719 7.859375 C 1.683594 15.9375 1.683594 29.078125 9.761719 37.15625 C 13.800781 41.195312 19.109375 43.21875 24.414062 43.21875 C 27.761719 43.21875 31.070312 42.320312 34.097656 40.714844 L 83.4375 90.054688 C 75.476562 98.699219 68.542969 108.304688 62.839844 118.683594 L 42.617188 98.457031 C 44.199219 95.496094 45.125 92.214844 45.125 88.761719 C 45.125 83.226562 42.972656 78.023438 39.058594 74.109375 C 30.980469 66.03125 17.839844 66.03125 9.761719 74.109375 C 5.851562 78.023438 3.695312 83.222656 3.695312 88.753906 C 3.695312 94.285156 5.851562 99.492188 9.761719 103.40625 C 13.800781 107.4375 19.105469 109.460938 24.414062 109.460938 C 27.761719 109.460938 31.070312 108.5625 34.105469 106.957031 L 57.238281 130.089844 C 49.382812 147.949219 44.988281 167.660156 44.988281 188.390625 C 44.988281 209.121094 49.382812 228.835938 57.238281 246.695312 L 34.097656 269.832031 C 26.269531 265.679688 16.347656 266.796875 9.761719 273.375 C 5.851562 277.289062 3.695312 282.488281 3.695312 288.027344 C 3.695312 293.566406 5.851562 298.765625 9.761719 302.679688 C 13.800781 306.71875 19.105469 308.734375 24.414062 308.734375 C 29.722656 308.734375 35.027344 306.71875 39.066406 302.679688 C 42.976562 298.765625 45.132812 293.566406 45.132812 288.027344 C 45.132812 284.574219 44.207031 281.292969 42.621094 278.332031 L 62.847656 258.105469 C 68.546875 268.484375 75.480469 278.089844 83.445312 286.734375 L 34.105469 336.074219 C 26.273438 331.914062 16.355469 333.039062 9.769531 339.625 C 1.691406 347.703125 1.691406 360.84375 9.769531 368.921875 C 13.808594 372.960938 19.109375 374.976562 24.421875 374.976562 C 29.730469 374.976562 35.03125 372.960938 39.070312 368.921875 C 45.65625 362.335938 46.78125 352.414062 42.621094 344.585938 L 91.960938 295.246094 C 100.605469 303.207031 110.210938 310.140625 120.589844 315.84375 L 100.304688 336.128906 C 92.511719 332.171875 82.367188 333.273438 76.015625 339.628906 C 67.9375 347.707031 67.9375 360.847656 76.015625 368.925781 C 79.929688 372.839844 85.128906 374.992188 90.667969 374.992188 C 96.207031 374.992188 101.40625 372.839844 105.320312 368.925781 C 111.902344 362.335938 113.023438 352.414062 108.871094 344.589844 L 132.003906 321.457031 C 149.863281 329.3125 169.574219 333.707031 190.304688 333.707031 C 211.035156 333.707031 230.75 329.3125 248.605469 321.457031 L 271.746094 344.597656 C 267.585938 352.429688 268.710938 362.339844 275.289062 368.933594 C 279.203125 372.84375 284.402344 375 289.941406 375 C 295.480469 375 300.679688 372.84375 304.59375 368.933594 C 312.671875 360.855469 312.671875 347.714844 304.59375 339.636719 C 298.242188 333.28125 288.101562 332.179688 280.304688 336.132812 L 260.027344 315.855469 C 270.402344 310.15625 280.011719 303.21875 288.652344 295.257812 L 337.992188 344.597656 C 333.835938 352.429688 334.960938 362.347656 341.542969 368.933594 C 345.582031 372.972656 350.886719 374.988281 356.195312 374.988281 C 361.503906 374.988281 366.808594 372.972656 370.847656 368.933594 C 378.925781 360.855469 378.925781 347.714844 370.847656 339.636719 C 364.261719 333.050781 354.339844 331.925781 346.511719 336.085938 L 297.171875 286.746094 C 305.132812 278.101562 312.070312 268.496094 317.769531 258.117188 L 337.992188 278.34375 C 336.410156 281.304688 335.484375 284.585938 335.484375 288.039062 C 335.453125 293.558594 337.609375 298.761719 341.527344 302.671875 Z M 190.292969 284.089844 C 137.523438 284.089844 94.59375 241.160156 94.59375 188.390625 C 94.59375 135.621094 137.523438 92.691406 190.292969 92.691406 C 243.0625 92.691406 285.992188 135.621094 285.992188 188.390625 C 285.992188 241.160156 243.0625 284.089844 190.292969 284.089844 Z M 245.339844 153.136719 L 193.300781 123.085938 C 191.4375 122.011719 189.148438 122.011719 187.28125 123.085938 L 135.246094 153.128906 C 133.378906 154.207031 132.238281 156.195312 132.238281 158.34375 L 132.238281 218.425781 C 132.238281 220.574219 133.378906 222.566406 135.246094 223.640625 L 187.28125 253.683594 C 188.214844 254.21875 189.25 254.488281 190.292969 254.488281 C 191.335938 254.488281 192.371094 254.222656 193.300781 253.683594 L 245.339844 223.640625 C 247.203125 222.5625 248.347656 220.574219 248.347656 218.425781 L 248.347656 158.34375 C 248.347656 156.195312 247.203125 154.207031 245.339844 153.136719 Z M 190.292969 135.253906 L 230.289062 158.34375 L 190.292969 181.4375 L 150.292969 158.347656 Z M 196.3125 238.054688 L 196.3125 191.871094 L 236.308594 168.78125 L 236.308594 214.964844 Z M 196.3125 238.054688 " fill-opacity="1" fill-rule="nonzero"/></svg>