<svg xmlns="http://www.w3.org/2000/svg" xmlns:xlink="http://www.w3.org/1999/xlink" width="500" zoomAndPan="magnify" viewBox="0 0 375 374.999991" height="500" preserveAspectRatio="xMidYMid meet" version="1.0"><defs><clipPath id="f4058f0220"><path d="M 48 71 L 334 71 L 334 313.730469 L 48 313.730469 Z M 48 71 " clip-rule="nonzero"/></clipPath></defs><path fill="#ffffff" d="M 187.441406 -0.046875 C 84.066406 -0.046875 -0.046875 84.066406 -0.046875 187.441406 C -0.046875 290.820312 84.066406 374.929688 187.441406 374.929688 C 290.820312 374.929688 374.929688 290.820312 374.929688 187.441406 C 374.929688 84.066406 290.820312 -0.046875 187.441406 -0.046875 Z M 187.441406 351.496094 C 96.980469 351.496094 23.390625 277.882812 23.390625 187.441406 C 23.390625 97.003906 96.980469 23.390625 187.441406 23.390625 C 277.90625 23.390625 351.496094 97.003906 351.496094 187.441406 C 351.496094 277.882812 277.90625 351.496094 187.441406 351.496094 Z M 187.441406 351.496094 " fill-opacity="1" fill-rule="nonzero"/><g clip-path="url(#f4058f0220)"><path fill="#ffffff" d="M 170.691406 74 C 170.492188 74.042969 170.292969 74.097656 170.097656 74.164062 C 169.929688 74.210938 169.753906 74.242188 169.59375 74.304688 C 169.410156 74.386719 169.230469 74.476562 169.058594 74.574219 C 168.898438 74.65625 168.734375 74.722656 168.585938 74.816406 C 168.429688 74.925781 168.28125 75.039062 168.136719 75.164062 C 167.996094 75.277344 167.839844 75.378906 167.710938 75.5 C 167.582031 75.625 167.476562 75.769531 167.359375 75.902344 C 167.234375 76.046875 167.097656 76.183594 166.988281 76.335938 C 166.894531 76.472656 166.824219 76.621094 166.742188 76.761719 C 166.628906 76.933594 166.527344 77.113281 166.4375 77.296875 C 166.378906 77.429688 166.34375 77.570312 166.292969 77.707031 C 166.210938 77.917969 166.136719 78.132812 166.078125 78.351562 C 166.050781 78.472656 166.046875 78.601562 166.027344 78.726562 C 165.976562 78.972656 165.945312 79.222656 165.929688 79.472656 C 165.925781 79.578125 165.945312 79.683594 165.949219 79.792969 C 165.945312 80.0625 165.964844 80.332031 166 80.601562 L 168.558594 96.121094 C 168.058594 96.207031 167.59375 96.285156 167.179688 96.359375 L 134.785156 72.667969 C 134.3125 72.324219 133.800781 72.058594 133.246094 71.871094 C 132.695312 71.679688 132.128906 71.578125 131.542969 71.5625 C 130.960938 71.546875 130.386719 71.617188 129.824219 71.777344 C 129.265625 71.9375 128.738281 72.175781 128.25 72.492188 C 127.761719 72.8125 127.328125 73.195312 126.957031 73.644531 C 126.585938 74.09375 126.289062 74.589844 126.066406 75.128906 C 125.84375 75.667969 125.707031 76.230469 125.65625 76.8125 C 125.605469 77.394531 125.644531 77.96875 125.769531 78.539062 L 132.296875 108.390625 C 128.882812 110.515625 125.734375 112.976562 122.851562 115.777344 L 55.117188 101.519531 C 54.464844 101.382812 53.8125 101.359375 53.152344 101.449219 C 52.496094 101.539062 51.871094 101.738281 51.28125 102.042969 C 50.691406 102.347656 50.171875 102.746094 49.71875 103.230469 C 49.269531 103.71875 48.910156 104.265625 48.648438 104.878906 C 48.386719 105.488281 48.234375 106.125 48.195312 106.789062 C 48.152344 107.449219 48.222656 108.101562 48.40625 108.738281 C 48.59375 109.378906 48.878906 109.964844 49.265625 110.503906 C 49.652344 111.042969 50.121094 111.503906 50.667969 111.878906 L 103.257812 148.125 C 98.191406 163.4375 95.308594 179.148438 94.605469 195.261719 L 94.605469 196.035156 C 94.609375 196.683594 94.644531 197.332031 94.710938 197.980469 C 94.777344 198.625 94.875 199.269531 95.003906 199.90625 C 95.132812 200.542969 95.292969 201.171875 95.484375 201.792969 C 95.671875 202.414062 95.894531 203.027344 96.144531 203.625 C 96.394531 204.226562 96.675781 204.8125 96.984375 205.386719 C 97.292969 205.957031 97.628906 206.511719 97.992188 207.054688 C 98.355469 207.59375 98.742188 208.113281 99.15625 208.613281 C 99.570312 209.117188 100.007812 209.597656 100.46875 210.054688 C 100.929688 210.511719 101.414062 210.949219 101.914062 211.359375 C 102.417969 211.769531 102.941406 212.15625 103.484375 212.515625 C 104.023438 212.875 104.582031 213.207031 105.15625 213.511719 C 105.730469 213.820312 106.320312 214.09375 106.921875 214.34375 C 107.523438 214.589844 108.132812 214.808594 108.757812 214.996094 C 109.378906 215.183594 110.007812 215.339844 110.648438 215.464844 C 111.285156 215.589844 111.929688 215.683594 112.574219 215.746094 C 113.222656 215.808594 113.871094 215.839844 114.519531 215.839844 C 116.078125 215.832031 117.613281 215.640625 119.121094 215.265625 C 120.632812 214.886719 122.078125 214.335938 123.457031 213.609375 C 124.832031 212.882812 126.105469 212.003906 127.269531 210.972656 C 128.433594 209.9375 129.457031 208.78125 130.34375 207.5 L 140.917969 192.085938 L 147.703125 192.085938 C 149.503906 192.085938 151.292969 191.949219 153.070312 191.675781 C 154.851562 191.40625 156.601562 191 158.316406 190.464844 C 160.035156 189.925781 161.703125 189.261719 163.320312 188.46875 C 164.933594 187.679688 166.484375 186.769531 167.960938 185.742188 C 169.4375 184.71875 170.832031 183.585938 172.136719 182.347656 C 173.445312 181.109375 174.648438 179.777344 175.753906 178.355469 C 176.855469 176.933594 177.847656 175.4375 178.722656 173.867188 C 179.597656 172.292969 180.351562 170.664062 180.980469 168.976562 C 182.761719 169.378906 184.460938 170 186.078125 170.84375 C 187.695312 171.691406 189.175781 172.726562 190.523438 173.960938 C 191.867188 175.195312 193.03125 176.578125 194.015625 178.117188 C 194.996094 179.65625 195.765625 181.292969 196.320312 183.03125 C 198.097656 191.523438 190.652344 200.992188 175.882812 209 C 124.167969 237.042969 131.402344 305.40625 131.734375 308.304688 C 131.800781 308.863281 131.945312 309.402344 132.167969 309.921875 C 132.390625 310.441406 132.683594 310.914062 133.046875 311.347656 C 133.410156 311.777344 133.828125 312.148438 134.296875 312.457031 C 134.769531 312.769531 135.277344 313.003906 135.816406 313.160156 C 136.359375 313.320312 136.910156 313.402344 137.476562 313.398438 C 138.039062 313.394531 138.59375 313.3125 139.132812 313.144531 C 139.671875 312.980469 140.175781 312.742188 140.644531 312.425781 C 141.113281 312.113281 141.527344 311.738281 141.886719 311.304688 C 199.722656 241.113281 281.382812 303.222656 284.828125 305.902344 C 285.171875 306.164062 285.535156 306.390625 285.925781 306.570312 C 286.316406 306.753906 286.726562 306.890625 287.148438 306.980469 C 287.570312 307.074219 287.996094 307.117188 288.425781 307.109375 C 288.859375 307.105469 289.285156 307.054688 289.703125 306.953125 C 290.125 306.851562 290.527344 306.707031 290.914062 306.515625 C 291.300781 306.324219 291.660156 306.089844 291.996094 305.816406 C 292.328125 305.546875 292.628906 305.238281 292.894531 304.898438 C 293.160156 304.558594 293.386719 304.191406 293.566406 303.800781 C 297.628906 294.664062 300.96875 285.269531 303.589844 275.621094 L 318.609375 279.429688 C 318.960938 279.519531 319.320312 279.574219 319.6875 279.597656 C 320.050781 279.617188 320.414062 279.605469 320.777344 279.558594 C 321.140625 279.507812 321.496094 279.425781 321.839844 279.3125 C 322.1875 279.195312 322.519531 279.046875 322.839844 278.871094 C 323.160156 278.691406 323.457031 278.480469 323.734375 278.246094 C 324.015625 278.007812 324.269531 277.75 324.5 277.464844 C 324.726562 277.179688 324.925781 276.875 325.097656 276.550781 C 325.269531 276.230469 325.410156 275.890625 325.515625 275.542969 C 326.664062 271.796875 353.082031 183.167969 302.066406 122.089844 C 250.917969 60.851562 173.941406 73.433594 170.691406 74 Z M 80.800781 118.675781 L 114.382812 125.746094 C 111.859375 129.398438 109.636719 133.226562 107.722656 137.234375 Z M 285.777344 292.570312 C 265.214844 279.140625 196.9375 241.582031 142.847656 293.359375 C 143.089844 286.015625 143.96875 278.753906 145.476562 271.566406 C 153.058594 264.832031 193.398438 233.015625 252.210938 259.652344 C 252.554688 259.804688 252.910156 259.921875 253.277344 260.003906 C 253.644531 260.085938 254.015625 260.132812 254.390625 260.144531 C 254.765625 260.15625 255.140625 260.128906 255.511719 260.066406 C 255.878906 260.003906 256.242188 259.90625 256.59375 259.769531 C 256.945312 259.636719 257.277344 259.472656 257.597656 259.273438 C 257.917969 259.074219 258.210938 258.84375 258.484375 258.585938 C 258.761719 258.328125 259.007812 258.046875 259.226562 257.742188 C 259.445312 257.4375 259.628906 257.113281 259.785156 256.769531 C 259.941406 256.425781 260.0625 256.074219 260.148438 255.707031 C 260.234375 255.339844 260.28125 254.972656 260.296875 254.59375 C 260.308594 254.21875 260.285156 253.847656 260.222656 253.476562 C 260.164062 253.105469 260.070312 252.742188 259.9375 252.390625 C 259.804688 252.039062 259.640625 251.703125 259.445312 251.382812 C 259.25 251.0625 259.023438 250.765625 258.765625 250.488281 C 258.511719 250.210938 258.230469 249.964844 257.925781 249.742188 C 257.625 249.523438 257.300781 249.332031 256.960938 249.175781 C 208.714844 227.332031 170.796875 241.753906 151.078125 253.589844 C 154.488281 245.316406 159.253906 237.914062 165.371094 231.382812 C 168.984375 229.875 172.664062 228.554688 176.410156 227.417969 C 180.160156 226.28125 183.953125 225.332031 187.792969 224.578125 C 191.636719 223.820312 195.507812 223.257812 199.402344 222.890625 C 203.300781 222.523438 207.207031 222.351562 211.125 222.375 C 215.039062 222.398438 218.945312 222.617188 222.835938 223.03125 C 226.730469 223.445312 230.59375 224.054688 234.425781 224.859375 C 238.257812 225.660156 242.039062 226.652344 245.773438 227.835938 C 249.503906 229.015625 253.167969 230.382812 256.765625 231.929688 C 257.109375 232.082031 257.46875 232.199219 257.835938 232.28125 C 258.203125 232.363281 258.574219 232.410156 258.953125 232.417969 C 259.328125 232.425781 259.703125 232.398438 260.074219 232.332031 C 260.449219 232.269531 260.808594 232.167969 261.160156 232.03125 C 261.511719 231.894531 261.847656 231.726562 262.164062 231.523438 C 262.484375 231.320312 262.78125 231.089844 263.054688 230.832031 C 263.324219 230.570312 263.570312 230.285156 263.789062 229.976562 C 264.003906 229.667969 264.191406 229.34375 264.34375 228.996094 C 264.496094 228.652344 264.613281 228.296875 264.695312 227.929688 C 264.777344 227.558594 264.824219 227.1875 264.832031 226.808594 C 264.84375 226.433594 264.816406 226.058594 264.75 225.6875 C 264.6875 225.316406 264.585938 224.953125 264.449219 224.601562 C 264.316406 224.25 264.148438 223.914062 263.945312 223.59375 C 263.742188 223.277344 263.511719 222.980469 263.253906 222.707031 C 262.992188 222.433594 262.710938 222.1875 262.402344 221.972656 C 262.09375 221.753906 261.765625 221.566406 261.421875 221.414062 C 256.027344 219.027344 250.488281 217.03125 244.808594 215.425781 C 239.128906 213.820312 233.363281 212.625 227.515625 211.832031 C 221.667969 211.042969 215.792969 210.667969 209.890625 210.710938 C 203.988281 210.75 198.121094 211.207031 192.28125 212.078125 C 197.496094 208.304688 201.6875 203.617188 204.851562 198.015625 C 213.4375 197.625 237.179688 197.300781 256.328125 204.164062 C 256.683594 204.292969 257.046875 204.386719 257.421875 204.441406 C 257.796875 204.5 258.171875 204.519531 258.550781 204.503906 C 258.929688 204.484375 259.304688 204.433594 259.671875 204.339844 C 260.039062 204.25 260.394531 204.125 260.738281 203.964844 C 261.078125 203.800781 261.402344 203.609375 261.707031 203.382812 C 262.011719 203.160156 262.292969 202.90625 262.546875 202.625 C 262.800781 202.347656 263.027344 202.042969 263.222656 201.71875 C 263.417969 201.394531 263.578125 201.054688 263.707031 200.699219 C 263.835938 200.339844 263.925781 199.976562 263.980469 199.601562 C 264.035156 199.226562 264.054688 198.847656 264.035156 198.472656 C 264.015625 198.09375 263.960938 197.71875 263.867188 197.351562 C 263.777344 196.984375 263.648438 196.628906 263.484375 196.289062 C 263.324219 195.945312 263.128906 195.625 262.902344 195.320312 C 262.675781 195.015625 262.421875 194.738281 262.140625 194.484375 C 261.859375 194.230469 261.554688 194.007812 261.230469 193.8125 C 260.90625 193.621094 260.5625 193.460938 260.207031 193.335938 C 251.78125 190.683594 243.1875 188.773438 234.433594 187.609375 C 225.675781 186.441406 216.886719 186.035156 208.058594 186.386719 C 208.125 184.464844 207.964844 182.558594 207.578125 180.675781 C 207.140625 178.742188 206.488281 176.886719 205.613281 175.109375 C 219.097656 173.558594 232.476562 174.1875 245.753906 177 C 246.121094 177.09375 246.496094 177.152344 246.871094 177.167969 C 247.25 177.1875 247.628906 177.171875 248 177.117188 C 248.375 177.058594 248.742188 176.96875 249.097656 176.839844 C 249.457031 176.714844 249.796875 176.550781 250.121094 176.355469 C 250.445312 176.164062 250.75 175.9375 251.027344 175.683594 C 251.308594 175.429688 251.5625 175.148438 251.785156 174.84375 C 252.011719 174.539062 252.207031 174.214844 252.367188 173.875 C 252.527344 173.53125 252.652344 173.175781 252.746094 172.808594 C 252.835938 172.441406 252.890625 172.066406 252.90625 171.6875 C 252.925781 171.308594 252.90625 170.933594 252.847656 170.558594 C 252.789062 170.183594 252.695312 169.820312 252.566406 169.464844 C 252.4375 169.109375 252.277344 168.769531 252.078125 168.445312 C 251.882812 168.121094 251.65625 167.820312 251.402344 167.539062 C 251.144531 167.261719 250.863281 167.007812 250.558594 166.785156 C 250.253906 166.5625 249.929688 166.371094 249.585938 166.210938 C 249.242188 166.050781 248.886719 165.925781 248.515625 165.835938 C 240.058594 164.074219 231.511719 163.082031 222.875 162.867188 C 214.238281 162.652344 205.652344 163.214844 197.117188 164.554688 C 192.980469 161.238281 188.339844 158.9375 183.195312 157.652344 C 183.207031 157.289062 183.214844 156.929688 183.214844 156.570312 L 183.214844 147.640625 C 183.214844 147.265625 183.179688 146.890625 183.105469 146.519531 C 183.03125 146.148438 182.921875 145.789062 182.777344 145.441406 C 182.632812 145.09375 182.457031 144.761719 182.246094 144.445312 C 182.035156 144.132812 181.796875 143.84375 181.53125 143.574219 C 181.261719 143.308594 180.972656 143.070312 180.660156 142.859375 C 180.34375 142.648438 180.015625 142.472656 179.664062 142.328125 C 179.316406 142.183594 178.957031 142.074219 178.585938 142 C 178.214844 141.929688 177.84375 141.890625 177.464844 141.890625 C 177.085938 141.890625 176.710938 141.929688 176.34375 142 C 175.972656 142.074219 175.613281 142.183594 175.261719 142.328125 C 174.914062 142.472656 174.582031 142.648438 174.269531 142.859375 C 173.957031 143.070312 173.664062 143.308594 173.398438 143.574219 C 173.132812 143.84375 172.890625 144.132812 172.683594 144.445312 C 172.472656 144.761719 172.296875 145.09375 172.152344 145.441406 C 172.007812 145.789062 171.898438 146.148438 171.824219 146.519531 C 171.75 146.890625 171.714844 147.265625 171.714844 147.640625 L 171.714844 156.570312 C 171.710938 158.121094 171.550781 159.65625 171.242188 161.175781 C 171.226562 161.242188 171.210938 161.308594 171.199219 161.375 C 170.929688 162.722656 170.546875 164.035156 170.046875 165.316406 C 169.550781 166.59375 168.949219 167.824219 168.242188 169 C 167.53125 170.175781 166.726562 171.28125 165.828125 172.320312 C 164.929688 173.359375 163.949219 174.3125 162.886719 175.179688 C 161.824219 176.050781 160.695312 176.820312 159.496094 177.496094 C 158.300781 178.171875 157.058594 178.738281 155.761719 179.199219 C 154.46875 179.660156 153.144531 180.003906 151.792969 180.238281 C 150.441406 180.46875 149.078125 180.585938 147.703125 180.582031 L 137.890625 180.582031 C 136.941406 180.582031 136.050781 180.804688 135.210938 181.246094 C 134.371094 181.6875 133.683594 182.300781 133.148438 183.082031 L 120.882812 200.960938 C 120.160156 202.007812 119.238281 202.832031 118.117188 203.429688 C 116.992188 204.023438 115.792969 204.328125 114.519531 204.339844 C 113.972656 204.339844 113.429688 204.289062 112.890625 204.1875 C 112.351562 204.082031 111.828125 203.925781 111.320312 203.71875 C 110.8125 203.511719 110.328125 203.257812 109.871094 202.957031 C 109.414062 202.65625 108.988281 202.3125 108.597656 201.925781 C 108.207031 201.539062 107.859375 201.121094 107.550781 200.667969 C 107.242188 200.210938 106.980469 199.734375 106.769531 199.226562 C 106.554688 198.722656 106.390625 198.199219 106.28125 197.664062 C 106.171875 197.125 106.113281 196.582031 106.109375 196.035156 L 106.101562 195.570312 C 106.75 179.390625 109.824219 163.683594 115.332031 148.453125 C 115.496094 148.117188 115.628906 147.765625 115.726562 147.402344 C 121.027344 134.332031 129.105469 122.6875 141.425781 116.449219 C 141.992188 116.164062 142.5 115.789062 142.945312 115.335938 C 143.386719 114.878906 143.746094 114.363281 144.019531 113.785156 C 144.292969 113.210938 144.46875 112.609375 144.539062 111.976562 C 144.613281 111.34375 144.582031 110.714844 144.445312 110.09375 L 140.25 90.917969 L 162.441406 107.144531 C 163.132812 107.644531 163.898438 107.980469 164.742188 108.140625 C 165.582031 108.304688 166.417969 108.28125 167.246094 108.074219 C 169.847656 107.46875 172.46875 107.011719 175.121094 106.699219 L 175.179688 106.710938 C 175.496094 106.710938 175.8125 106.6875 176.125 106.632812 C 176.246094 106.613281 176.359375 106.566406 176.480469 106.539062 C 178.894531 106.257812 181.320312 106.058594 183.75 105.941406 C 186.179688 105.824219 188.613281 105.785156 191.042969 105.828125 C 193.476562 105.875 195.90625 106 198.332031 106.207031 C 200.753906 106.410156 203.167969 106.699219 205.574219 107.066406 C 207.980469 107.433594 210.371094 107.882812 212.746094 108.410156 C 215.121094 108.9375 217.476562 109.542969 219.8125 110.230469 C 222.144531 110.914062 224.457031 111.675781 226.738281 112.515625 C 229.023438 113.355469 231.277344 114.269531 233.5 115.257812 C 235.722656 116.246094 237.910156 117.308594 240.0625 118.445312 C 242.214844 119.582031 244.324219 120.789062 246.394531 122.066406 C 248.46875 123.34375 250.492188 124.6875 252.472656 126.097656 C 254.457031 127.511719 256.386719 128.988281 258.269531 130.53125 C 260.152344 132.070312 261.984375 133.671875 263.757812 135.335938 C 265.535156 137 267.25 138.722656 268.914062 140.5 C 270.574219 142.277344 272.171875 144.109375 273.710938 145.996094 C 275.25 147.882812 276.722656 149.816406 278.132812 151.800781 C 315.902344 202.363281 293.90625 271.484375 285.777344 292.570312 Z M 315.90625 266.878906 L 306.40625 264.46875 C 313.785156 231.601562 316.558594 184.019531 287.34375 144.917969 C 285.835938 142.828125 284.257812 140.789062 282.617188 138.800781 C 280.980469 136.8125 279.277344 134.878906 277.511719 133 C 275.75 131.117188 273.929688 129.296875 272.050781 127.53125 C 270.171875 125.765625 268.238281 124.0625 266.25 122.421875 C 264.261719 120.78125 262.226562 119.203125 260.140625 117.691406 C 258.050781 116.179688 255.917969 114.734375 253.738281 113.359375 C 251.558594 111.984375 249.339844 110.675781 247.078125 109.441406 C 244.8125 108.207031 242.515625 107.042969 240.179688 105.953125 C 237.84375 104.867188 235.472656 103.851562 233.074219 102.914062 C 230.671875 101.972656 228.246094 101.113281 225.789062 100.328125 C 223.335938 99.542969 220.855469 98.839844 218.355469 98.210938 C 215.855469 97.582031 213.339844 97.035156 210.804688 96.570312 C 208.269531 96.101562 205.722656 95.71875 203.164062 95.410156 C 200.601562 95.105469 198.035156 94.882812 195.464844 94.742188 C 192.890625 94.597656 190.3125 94.539062 187.738281 94.5625 C 185.160156 94.582031 182.585938 94.6875 180.015625 94.871094 L 178.332031 84.679688 C 196.414062 83.125 253.921875 82.394531 293.238281 129.464844 C 333.457031 177.609375 320.597656 247.289062 315.90625 266.878906 Z M 315.90625 266.878906 " fill-opacity="1" fill-rule="nonzero"/></g><path fill="#ffffff" d="M 145.195312 131.09375 C 144.277344 131.15625 143.375 131.304688 142.488281 131.542969 C 141.601562 131.78125 140.746094 132.105469 139.921875 132.507812 C 139.097656 132.914062 138.320312 133.394531 137.589844 133.949219 C 136.855469 134.503906 136.1875 135.128906 135.578125 135.8125 C 134.964844 136.5 134.429688 137.238281 133.960938 138.03125 C 133.496094 138.824219 133.109375 139.652344 132.804688 140.519531 C 132.5 141.386719 132.28125 142.273438 132.148438 143.183594 C 132.015625 144.089844 131.972656 145.003906 132.019531 145.921875 C 132.019531 146.300781 132.058594 146.671875 132.128906 147.042969 C 132.203125 147.414062 132.3125 147.773438 132.457031 148.121094 C 132.601562 148.472656 132.78125 148.800781 132.988281 149.117188 C 133.199219 149.429688 133.4375 149.722656 133.703125 149.988281 C 133.972656 150.253906 134.261719 150.492188 134.574219 150.703125 C 134.890625 150.914062 135.222656 151.089844 135.570312 151.234375 C 135.917969 151.378906 136.277344 151.488281 136.648438 151.5625 C 137.019531 151.636719 137.394531 151.671875 137.769531 151.671875 C 138.148438 151.671875 138.523438 151.636719 138.894531 151.5625 C 139.261719 151.488281 139.621094 151.378906 139.972656 151.234375 C 140.320312 151.089844 140.652344 150.914062 140.964844 150.703125 C 141.28125 150.492188 141.570312 150.253906 141.835938 149.988281 C 142.105469 149.722656 142.34375 149.429688 142.550781 149.117188 C 142.761719 148.800781 142.9375 148.472656 143.082031 148.121094 C 143.226562 147.773438 143.335938 147.414062 143.410156 147.042969 C 143.484375 146.671875 143.523438 146.300781 143.523438 145.921875 C 143.523438 145.378906 143.625 142.679688 145.71875 142.582031 C 146.097656 142.566406 146.46875 142.511719 146.835938 142.421875 C 147.203125 142.332031 147.554688 142.207031 147.898438 142.046875 C 148.238281 141.886719 148.5625 141.695312 148.867188 141.46875 C 149.171875 141.246094 149.449219 140.996094 149.703125 140.714844 C 149.957031 140.4375 150.183594 140.136719 150.378906 139.8125 C 150.574219 139.488281 150.734375 139.148438 150.863281 138.792969 C 150.992188 138.441406 151.085938 138.074219 151.140625 137.703125 C 151.199219 137.328125 151.21875 136.953125 151.199219 136.578125 C 151.1875 136.199219 151.136719 135.824219 151.050781 135.457031 C 150.960938 135.085938 150.839844 134.730469 150.679688 134.386719 C 150.519531 134.042969 150.328125 133.71875 150.105469 133.414062 C 149.882812 133.109375 149.632812 132.828125 149.351562 132.570312 C 149.070312 132.316406 148.769531 132.089844 148.445312 131.894531 C 148.121094 131.703125 147.777344 131.539062 147.421875 131.414062 C 147.066406 131.285156 146.699219 131.195312 146.324219 131.140625 C 145.949219 131.089844 145.574219 131.070312 145.195312 131.09375 Z M 145.195312 131.09375 " fill-opacity="1" fill-rule="nonzero"/></svg>