<svg xmlns="http://www.w3.org/2000/svg" xmlns:xlink="http://www.w3.org/1999/xlink" width="500" zoomAndPan="magnify" viewBox="0 0 375 374.999991" height="500" preserveAspectRatio="xMidYMid meet" version="1.0"><defs><clipPath id="308ff8fda7"><path d="M 25.121094 0 L 349.789062 0 L 349.789062 375 L 25.121094 375 Z M 25.121094 0 " clip-rule="nonzero"/></clipPath></defs><g clip-path="url(#308ff8fda7)"><path fill="#e6e7e8" d="M 320.511719 129.546875 L 319.488281 131.316406 L 299.441406 119.742188 L 299.441406 276.511719 L 277.484375 289.195312 L 277.484375 107.0625 L 259.722656 96.804688 L 259.722656 77.613281 L 260.617188 76.070312 L 320.511719 110.660156 Z M 248.742188 198.484375 L 198.433594 198.484375 L 198.433594 334.847656 L 187.453125 341.1875 L 176.476562 334.847656 L 176.476562 40.15625 L 187.453125 33.816406 L 191.761719 36.304688 L 198.433594 40.15625 L 237.765625 62.871094 L 237.765625 85.503906 L 198.433594 62.789062 L 198.433594 176.519531 L 248.742188 176.519531 Z M 154.515625 322.164062 L 134.320312 310.5 L 132.84375 309.648438 L 132.558594 309.484375 L 132.558594 308.929688 L 75.464844 165.914062 L 75.464844 276.511719 L 54.398438 264.34375 L 54.398438 110.660156 L 75.464844 98.492188 L 75.464844 106.683594 L 132.558594 249.699219 L 132.558594 65.519531 L 154.515625 52.839844 Z M 187.453125 0 L 25.121094 93.75 L 25.121094 281.253906 L 187.453125 375.003906 L 349.789062 281.253906 L 349.789062 93.75 L 187.453125 0 " fill-opacity="1" fill-rule="nonzero"/></g></svg>